<svg width="573" height="41" viewBox="0 0 573 41" fill="none" xmlns="http://www.w3.org/2000/svg">
<path d="M556.52 33.4965C557.141 33.4965 557.667 33.2815 558.097 32.8516C558.55 32.3979 558.789 31.8605 558.813 31.2395V11.3926C558.789 10.7716 558.55 10.2462 558.097 9.81627C557.667 9.36248 557.141 9.13559 556.52 9.13559H556.055V8.77734H563.9V9.13559H563.435C562.575 9.13559 561.918 9.50578 561.464 10.2462C561.249 10.6044 561.142 10.9865 561.142 11.3926V32.7442H566.265C568.032 32.7442 569.382 32.3501 570.313 31.562C571.244 30.7738 572.021 29.6035 572.642 28.0511H573L570.922 33.8547H556.055V33.4965H556.52Z" fill="#004881"/>
<path d="M536.194 33.4968C536.815 33.4968 537.341 33.2819 537.771 32.852C538.224 32.3982 538.463 31.8608 538.487 31.2398V11.1779C538.487 10.6047 538.26 10.1271 537.806 9.74493C537.353 9.33892 536.815 9.13591 536.194 9.13591H535.764L535.729 8.77766H546.225C546.966 8.77766 547.766 8.70601 548.625 8.56271C549.509 8.41941 550.13 8.27611 550.488 8.13281V12.6467H550.13V12.0019C550.13 11.4287 549.927 10.9391 549.521 10.5331C549.139 10.1271 548.673 9.91212 548.124 9.88823H540.816V20.9581H546.87C547.348 20.9342 547.754 20.7551 548.088 20.4207C548.422 20.0864 548.59 19.6684 548.59 19.1669V18.6653H548.948V24.3257H548.59V23.7883C548.59 23.3106 548.422 22.9046 548.088 22.5702C547.778 22.2359 547.384 22.0567 546.906 22.0329H540.816V32.7445H545.939C547.706 32.7445 549.055 32.3504 549.987 31.5623C550.918 30.7741 551.694 29.6038 552.315 28.0514H552.674L550.596 33.8551H535.729V33.4968H536.194Z" fill="#004881"/>
<path d="M524.089 33.4965C524.71 33.4965 525.236 33.2815 525.666 32.8516C526.119 32.3979 526.358 31.8605 526.382 31.2395V11.3567C526.358 10.7358 526.119 10.2103 525.666 9.78044C525.236 9.35054 524.71 9.13559 524.089 9.13559H523.624V8.77734H531.469V9.13559H531.003C530.382 9.13559 529.845 9.35054 529.391 9.78044C528.961 10.2103 528.735 10.7358 528.711 11.3567V31.2395C528.711 31.8605 528.938 32.3979 529.391 32.8516C529.845 33.2815 530.382 33.4965 531.003 33.4965H531.469V33.8547H523.624V33.4965H524.089Z" fill="#004881"/>
<path d="M507.843 9.88792H505.551V31.2395C505.551 31.8605 505.765 32.3979 506.195 32.8516C506.649 33.2815 507.198 33.4965 507.843 33.4965H508.273L508.309 33.8547H500.463V33.4965H500.929C501.55 33.4965 502.076 33.2815 502.505 32.8516C502.959 32.4217 503.198 31.8963 503.222 31.2754V11.3926C503.198 10.7716 502.959 10.2462 502.505 9.81627C502.076 9.36248 501.55 9.13559 500.929 9.13559H500.463V8.77734H510.136C512.309 8.77734 514.017 9.38637 515.259 10.6044C516.501 11.7986 517.122 13.3629 517.122 15.2975C517.122 17.2081 516.525 18.868 515.331 20.2771C514.16 21.6624 512.727 22.355 511.032 22.355C511.39 22.5221 511.808 22.8565 512.286 23.3581C512.787 23.8357 513.229 24.3373 513.611 24.8627C515.665 27.8003 517.003 29.6155 517.624 30.3081C518.244 30.9768 518.686 31.4425 518.949 31.7053C519.212 31.9441 519.498 32.1829 519.809 32.4217C520.119 32.6606 520.43 32.8516 520.74 32.9949C521.433 33.3293 522.173 33.4965 522.961 33.4965V33.8547H520.991C519.964 33.8547 519.009 33.6756 518.125 33.3174C517.241 32.9352 516.573 32.5531 516.119 32.171C515.689 31.765 515.307 31.3828 514.972 31.0246C514.662 30.6424 513.778 29.4005 512.321 27.2988C510.865 25.1971 510.017 24.0029 509.778 23.7163C509.539 23.4058 509.288 23.1073 509.026 22.8207C508.261 22.0087 507.497 21.6026 506.733 21.6026V21.2444C506.924 21.2683 507.175 21.2802 507.485 21.2802C507.796 21.2802 508.178 21.2683 508.631 21.2444C511.593 21.1727 513.456 19.9308 514.22 17.5186C514.363 17.0409 514.435 16.5991 514.435 16.1931C514.435 15.7632 514.435 15.4885 514.435 15.3691C514.387 13.7689 513.969 12.4792 513.181 11.5C512.393 10.5208 511.33 9.99539 509.993 9.92374C509.42 9.89986 508.703 9.88792 507.843 9.88792Z" fill="#004881"/>
<path d="M488.563 33.8547H479.822L479.858 33.4965H480.288C480.909 33.4965 481.434 33.2815 481.864 32.8516C482.318 32.4217 482.557 31.8963 482.581 31.2754V11.3567C482.557 10.7358 482.318 10.2103 481.864 9.78044C481.434 9.35054 480.909 9.13559 480.288 9.13559H479.858L479.822 8.77734H486.951C489.411 8.77734 491.322 9.32666 492.683 10.4253C494.044 11.5 494.725 12.945 494.725 14.7601C494.725 16.1931 494.343 17.3873 493.579 18.3426C492.815 19.274 491.883 19.895 490.784 20.2055C492.671 20.4921 494.164 21.2683 495.263 22.5341C496.361 23.7999 496.91 25.4001 496.91 27.3346C496.91 29.2453 496.17 30.8096 494.689 32.0277C493.232 33.2457 491.19 33.8547 488.563 33.8547ZM484.909 32.5292H488.42C488.444 32.5292 488.468 32.5292 488.492 32.5292C490.307 32.5292 491.716 32.0396 492.719 31.0604C493.722 30.0812 494.224 28.684 494.224 26.8689C494.224 25.8419 494.044 24.9463 493.686 24.182C493.352 23.3939 492.922 22.7729 492.397 22.3191C491.011 21.1727 488.933 20.5995 486.163 20.5995C486.163 20.5995 486.151 20.5995 486.127 20.5995V20.2771C489.28 20.2771 491.179 19.1068 491.823 16.7663C491.967 16.2409 492.038 15.6557 492.038 15.0109C492.038 13.3868 491.585 12.1329 490.677 11.2493C489.793 10.3656 488.504 9.92374 486.808 9.92374H484.909V32.5292Z" fill="#004881"/>
<path d="M477.819 33.4961H478.106V33.8543H470.045V33.4961H470.367C470.869 33.4961 471.239 33.3408 471.478 33.0304C471.741 32.696 471.872 32.3855 471.872 32.0989C471.872 31.8123 471.824 31.5257 471.729 31.2391L469.436 25.1489H459.763L457.363 31.2749C457.267 31.5615 457.22 31.8481 457.22 32.1347C457.22 32.3975 457.339 32.696 457.578 33.0304C457.841 33.3408 458.223 33.4961 458.724 33.4961H459.047V33.8543H451.846V33.4961H452.168C452.765 33.4961 453.351 33.305 453.924 32.9229C454.497 32.5408 454.963 31.9795 455.321 31.2391L463.417 11.9654C464.301 10.0308 464.743 8.80082 464.743 8.27539H465.065L474.666 31.2391C475.001 31.9795 475.455 32.5408 476.028 32.9229C476.601 33.305 477.198 33.4961 477.819 33.4961ZM460.193 24.0742H469.006L464.707 12.5744L460.193 24.0742Z" fill="#004881"/>
<path d="M456.585 40.0879C453.552 40.0879 451.068 39.1206 449.134 37.186C447.701 35.7531 446.757 33.9499 446.304 31.7765C444.035 33.4961 441.252 34.3559 437.956 34.3559C435.353 34.3559 432.977 33.7946 430.827 32.6721C428.702 31.5257 427.03 29.9614 425.812 27.9791C424.618 25.9968 424.021 23.7637 424.021 21.2798C424.021 18.796 424.618 16.5629 425.812 14.5806C427.03 12.5744 428.702 11.022 430.827 9.92333C432.953 8.82471 435.329 8.27539 437.956 8.27539C441.252 8.27539 444.154 9.08742 446.662 10.7115L447.378 15.7628H447.056C446.339 12.9923 444.715 11.1056 442.184 10.1025C440.942 9.60091 439.533 9.35014 437.956 9.35014C434.732 9.35014 432.045 10.4727 429.896 12.7177C427.77 14.9627 426.707 17.8167 426.707 21.2798C426.707 24.719 427.782 27.573 429.932 29.842C432.081 32.1109 434.756 33.2573 437.956 33.2811C439.509 33.2811 440.99 33.0065 442.399 32.4572C443.808 31.9079 445.014 31.1436 446.017 30.1644V23.8234C446.017 23.2979 445.862 22.9039 445.551 22.6412C445.241 22.3546 444.799 22.2113 444.226 22.2113H443.653V21.853H450.674V22.2113H450.137C449.54 22.2113 449.086 22.3546 448.776 22.6412C448.465 22.9039 448.322 23.2979 448.346 23.8234V29.3404C448.489 33.114 449.719 35.8128 452.036 37.4368C453.66 38.5832 455.761 39.1564 458.341 39.1564C459.415 39.1564 460.586 39.0489 461.852 38.834L461.887 39.1922C459.977 39.7893 458.209 40.0879 456.585 40.0879Z" fill="#004881"/>
<path d="M387.814 11.8937C390.37 9.48149 393.678 8.27539 397.738 8.27539C401.822 8.27539 405.142 9.48149 407.697 11.8937C410.253 14.282 411.53 17.4227 411.53 21.3156C411.53 25.2086 410.253 28.3612 407.697 30.7734C405.142 33.1617 401.822 34.3559 397.738 34.3559C393.678 34.3559 390.37 33.1617 387.814 30.7734C385.259 28.3612 383.981 25.2086 383.981 21.3156C383.981 17.4227 385.259 14.282 387.814 11.8937ZM389.749 29.9853C391.779 32.1825 394.442 33.2811 397.738 33.2811C401.034 33.2811 403.685 32.1825 405.691 29.9853C407.721 27.788 408.736 24.8981 408.736 21.3156C408.736 17.7332 407.721 14.8433 405.691 12.646C403.685 10.4488 401.034 9.35014 397.738 9.35014C394.442 9.35014 391.779 10.4488 389.749 12.646C387.743 14.8433 386.739 17.7332 386.739 21.3156C386.739 24.8981 387.743 27.788 389.749 29.9853Z" fill="#004881"/>
<path d="M373.6 4.8725C374.603 4.8725 375.272 4.46649 375.606 3.65446H375.965C375.821 4.84862 375.403 5.68453 374.711 6.16219C374.376 6.37714 373.97 6.48462 373.493 6.48462C373.015 6.48462 372.275 6.2219 371.271 5.69647C370.292 5.17104 369.636 4.90833 369.301 4.90833C368.394 4.90833 367.749 5.39793 367.367 6.37715H367.008C367.128 5.4457 367.39 4.70532 367.797 4.156C368.203 3.60669 368.692 3.33203 369.265 3.33203C369.862 3.33203 370.639 3.59475 371.594 4.12018C372.549 4.62173 373.218 4.8725 373.6 4.8725ZM383.954 33.4966H384.24V33.8548H376.18V33.4966H376.502C377.003 33.4966 377.374 33.3413 377.613 33.0308C377.875 32.6965 378.007 32.386 378.007 32.0994C378.007 31.8128 377.959 31.5262 377.863 31.2396L375.57 25.1494H365.898L363.498 31.2754C363.402 31.562 363.354 31.8486 363.354 32.1352C363.354 32.3979 363.474 32.6965 363.712 33.0308C363.975 33.3413 364.357 33.4966 364.859 33.4966H365.181V33.8548H357.98V33.4966H358.303C358.9 33.4966 359.485 33.3055 360.058 32.9234C360.632 32.5412 361.097 31.98 361.455 31.2396L369.552 11.9658C370.436 10.0313 370.877 8.80129 370.877 8.27586H371.2L380.801 31.2396C381.135 31.98 381.589 32.5412 382.162 32.9234C382.735 33.3055 383.333 33.4966 383.954 33.4966ZM366.328 24.0746H375.141L370.842 12.5748L366.328 24.0746Z" fill="#004881"/>
<path d="M334.462 11.8937C337.017 9.48149 340.325 8.27539 344.385 8.27539C348.469 8.27539 351.789 9.48149 354.344 11.8937C356.9 14.282 358.178 17.4227 358.178 21.3156C358.178 25.2086 356.9 28.3612 354.344 30.7734C351.789 33.1617 348.469 34.3559 344.385 34.3559C340.325 34.3559 337.017 33.1617 334.462 30.7734C331.906 28.3612 330.628 25.2086 330.628 21.3156C330.628 17.4227 331.906 14.282 334.462 11.8937ZM336.396 29.9853C338.426 32.1825 341.089 33.2811 344.385 33.2811C347.681 33.2811 350.332 32.1825 352.338 29.9853C354.368 27.788 355.383 24.8981 355.383 21.3156C355.383 17.7332 354.368 14.8433 352.338 12.646C350.332 10.4488 347.681 9.35014 344.385 9.35014C341.089 9.35014 338.426 10.4488 336.396 12.646C334.39 14.8433 333.387 17.7332 333.387 21.3156C333.387 24.8981 334.39 27.788 336.396 29.9853Z" fill="#004881"/>
<path d="M314.925 38.6911C315.57 38.906 316.215 39.0135 316.86 39.0135C317.481 39.0135 318.137 38.8822 318.83 38.6194C319.523 38.3567 320.155 37.9388 320.729 37.3656C321.302 36.8163 321.768 35.9804 322.126 34.8578C322.508 33.7353 322.699 32.4098 322.699 30.8813V11.3926C322.675 10.7716 322.436 10.2462 321.983 9.81627C321.553 9.36248 321.027 9.13559 320.406 9.13559H319.941V8.77734H327.786V9.13559H327.32C326.699 9.13559 326.162 9.35054 325.708 9.78044C325.278 10.2103 325.052 10.7477 325.028 11.3926V30.9888C325.028 32.6128 324.777 34.0339 324.275 35.2519C323.774 36.47 323.141 37.3895 322.377 38.0104C320.944 39.1329 319.355 39.6942 317.612 39.6942C316.585 39.6942 315.642 39.4912 314.782 39.0852L314.925 38.6911Z" fill="#004881"/>
<path d="M311.509 36.3624C309.407 38.1775 307.078 39.0851 304.523 39.0851C302.708 39.0851 300.737 38.5955 298.612 37.6163C297.322 36.9953 296.128 36.2549 295.029 35.3951C293.931 34.5592 292.581 33.4845 290.981 32.1709C288.808 33.6039 286.36 34.3204 283.637 34.3204C282.276 34.3204 280.938 34.1293 279.625 33.7472C277.714 33.2218 276.114 32.2903 274.824 30.9529C273.487 29.5676 272.818 27.8839 272.818 25.9016C272.818 24.373 273.176 23.0475 273.893 21.925C274.633 20.7786 275.648 19.871 276.938 19.2023C275.911 17.626 275.397 15.99 275.397 14.2943C275.397 12.5747 275.994 11.1417 277.188 9.99532C278.383 8.84893 280.054 8.27573 282.204 8.27573C284.927 8.27573 287.04 9.12359 288.545 10.8193L288.043 14.8675H287.685C287.614 13.1718 287.1 11.8343 286.145 10.8551C285.189 9.85202 283.983 9.35048 282.526 9.35048C281.07 9.35048 279.923 9.8162 279.087 10.7476C278.251 11.6552 277.833 12.7897 277.833 14.151C277.833 15.6795 278.311 17.0886 279.266 18.3783C280.246 19.668 281.846 21.2802 284.067 23.2147C286.312 25.1492 288.975 27.4181 292.056 30.0214C293.346 28.8511 294.408 27.4659 295.244 25.8657C296.391 23.7401 296.964 21.4235 296.964 18.9157C296.964 17.7216 296.821 16.5393 296.534 15.3691C296.104 13.5778 295.173 11.8343 293.74 10.1386C292.307 8.44291 290.444 6.99798 288.151 5.80382L288.33 5.58887C290.336 6.4009 292.044 7.45176 293.453 8.74145C296.462 11.488 297.967 14.963 297.967 19.1665C297.967 21.7936 297.262 24.373 295.853 26.9047C295.041 28.3377 294.05 29.6035 292.88 30.7021L295.173 32.565C297.609 34.5234 300.045 35.9206 302.481 36.7565C303.603 37.1386 304.917 37.3297 306.422 37.3297C307.926 37.3297 309.562 36.8998 311.33 36.04L311.509 36.3624ZM278.514 31.2753C280.21 32.565 282.132 33.2098 284.282 33.2098C286.36 33.2098 288.318 32.6366 290.157 31.4902C286.837 28.7198 284.15 26.4389 282.097 24.6477C280.043 22.8564 278.526 21.3279 277.547 20.0621C276.114 21.3996 275.397 23.2147 275.397 25.5075C275.397 27.8003 276.436 29.7229 278.514 31.2753Z" fill="#B75600"/>
<path d="M261.715 33.4961H262.002V33.8543H253.941V33.4961H254.264C254.765 33.4961 255.136 33.3408 255.374 33.0304C255.637 32.696 255.769 32.3855 255.769 32.0989C255.769 31.8123 255.721 31.5257 255.625 31.2391L253.332 25.1489H243.66L241.259 31.2749C241.164 31.5615 241.116 31.8481 241.116 32.1347C241.116 32.3975 241.236 32.696 241.474 33.0304C241.737 33.3408 242.119 33.4961 242.621 33.4961H242.943V33.8543H235.742V33.4961H236.065C236.662 33.4961 237.247 33.305 237.82 32.9229C238.393 32.5408 238.859 31.9795 239.217 31.2391L247.314 11.9654C248.198 10.0308 248.639 8.80082 248.639 8.27539H248.962L258.563 31.2391C258.897 31.9795 259.351 32.5408 259.924 32.9229C260.497 33.305 261.094 33.4961 261.715 33.4961ZM244.09 24.0742H252.903L248.604 12.5744L244.09 24.0742Z" fill="#004881"/>
<path d="M226.575 33.4965C227.196 33.4965 227.721 33.2815 228.151 32.8516C228.605 32.3979 228.844 31.8605 228.868 31.2395V11.3567C228.844 10.7358 228.605 10.2103 228.151 9.78044C227.721 9.35054 227.196 9.13559 226.575 9.13559H226.109V8.77734H233.955V9.13559H233.489C232.868 9.13559 232.331 9.35054 231.877 9.78044C231.447 10.2103 231.22 10.7358 231.196 11.3567V31.2395C231.196 31.8605 231.423 32.3979 231.877 32.8516C232.331 33.2815 232.868 33.4965 233.489 33.4965H233.955V33.8547H226.109V33.4965H226.575Z" fill="#004881"/>
<path d="M210.329 9.88792H208.036V31.2395C208.036 31.8605 208.251 32.3979 208.681 32.8516C209.135 33.2815 209.684 33.4965 210.329 33.4965H210.759L210.795 33.8547H202.949V33.4965H203.415C204.036 33.4965 204.561 33.2815 204.991 32.8516C205.445 32.4217 205.684 31.8963 205.707 31.2754V11.3926C205.684 10.7716 205.445 10.2462 204.991 9.81627C204.561 9.36248 204.036 9.13559 203.415 9.13559H202.949V8.77734H212.622C214.795 8.77734 216.503 9.38637 217.745 10.6044C218.987 11.7986 219.608 13.3629 219.608 15.2975C219.608 17.2081 219.01 18.868 217.816 20.2771C216.646 21.6624 215.213 22.355 213.517 22.355C213.876 22.5221 214.294 22.8565 214.771 23.3581C215.273 23.8357 215.715 24.3373 216.097 24.8627C218.151 27.8003 219.488 29.6155 220.109 30.3081C220.73 30.9768 221.172 31.4425 221.435 31.7053C221.697 31.9441 221.984 32.1829 222.294 32.4217C222.605 32.6606 222.915 32.8516 223.226 32.9949C223.918 33.3293 224.659 33.4965 225.447 33.4965V33.8547H223.477C222.45 33.8547 221.494 33.6756 220.611 33.3174C219.727 32.9352 219.058 32.5531 218.604 32.171C218.175 31.765 217.792 31.3828 217.458 31.0246C217.148 30.6424 216.264 29.4005 214.807 27.2988C213.35 25.1971 212.502 24.0029 212.263 23.7163C212.025 23.4058 211.774 23.1073 211.511 22.8207C210.747 22.0087 209.983 21.6026 209.218 21.6026V21.2444C209.409 21.2683 209.66 21.2802 209.971 21.2802C210.281 21.2802 210.663 21.2683 211.117 21.2444C214.079 21.1727 215.941 19.9308 216.706 17.5186C216.849 17.0409 216.921 16.5991 216.921 16.1931C216.921 15.7632 216.921 15.4885 216.921 15.3691C216.873 13.7689 216.455 12.4792 215.667 11.5C214.879 10.5208 213.816 9.99539 212.478 9.92374C211.905 9.89986 211.189 9.88792 210.329 9.88792Z" fill="#004881"/>
<path d="M186.358 6.48387L186.107 6.2331C187.946 4.27467 189.463 2.71032 190.657 1.54004C191.302 2.18489 191.791 2.81779 192.126 3.43876C190.597 4.32244 188.675 5.33747 186.358 6.48387ZM176.399 11.8934C178.954 9.48122 182.262 8.27511 186.322 8.27511C190.406 8.27511 193.726 9.48122 196.281 11.8934C198.837 14.2817 200.115 17.4224 200.115 21.3154C200.115 23.8948 199.53 26.1756 198.359 28.1579C197.213 30.1402 195.589 31.6687 193.487 32.7435C191.409 33.8182 189.021 34.3556 186.322 34.3556C182.262 34.3556 178.954 33.1614 176.399 30.7731C173.843 28.3609 172.565 25.2083 172.565 21.3154C172.565 17.4224 173.843 14.2817 176.399 11.8934ZM178.333 29.985C180.363 32.1822 183.026 33.2809 186.322 33.2809C189.618 33.2809 192.269 32.1822 194.275 29.985C196.305 27.7877 197.32 24.8978 197.32 21.3154C197.32 17.7329 196.305 14.843 194.275 12.6457C192.269 10.4485 189.618 9.34986 186.322 9.34986C183.026 9.34986 180.363 10.4485 178.333 12.6457C176.327 14.843 175.324 17.7329 175.324 21.3154C175.324 24.8978 176.327 27.7877 178.333 29.985Z" fill="#004881"/>
<path d="M170.997 11.9658C170.997 11.3926 170.794 10.903 170.388 10.4969C169.982 10.067 169.504 9.84016 168.955 9.81627H162.148V31.2754C162.172 31.8963 162.399 32.4218 162.829 32.8517C163.283 33.2816 163.82 33.4965 164.441 33.4965H164.907V33.8548H157.061V33.4965H157.527C158.148 33.4965 158.673 33.2816 159.103 32.8517C159.557 32.4218 159.796 31.9083 159.82 31.3112V9.81627H153.013C152.44 9.84016 151.95 10.067 151.544 10.4969C151.162 10.903 150.971 11.3926 150.971 11.9658V12.5748L150.613 12.6106V8.09668C150.971 8.23998 151.592 8.38328 152.476 8.52658C153.359 8.66988 154.171 8.74153 154.912 8.74153H167.021C168.191 8.74153 169.158 8.65794 169.922 8.49075C170.711 8.29969 171.188 8.16833 171.355 8.09668V12.6106L170.997 12.5748V11.9658Z" fill="#004881"/>
<path d="M140.406 33.4965C141.027 33.4965 141.553 33.2815 141.983 32.8516C142.436 32.3979 142.675 31.8605 142.699 31.2395V11.3567C142.675 10.7358 142.436 10.2103 141.983 9.78044C141.553 9.35054 141.027 9.13559 140.406 9.13559H139.941V8.77734H147.786V9.13559H147.321C146.7 9.13559 146.162 9.35054 145.708 9.78044C145.279 10.2103 145.052 10.7358 145.028 11.3567V31.2395C145.028 31.8605 145.255 32.3979 145.708 32.8516C146.162 33.2815 146.7 33.4965 147.321 33.4965H147.786V33.8547H139.941V33.4965H140.406Z" fill="#004881"/>
<path d="M139.841 1.75542C140.653 1.2061 141.621 0.776206 142.743 0.465724C143.866 0.155241 144.773 0 145.466 0C146.158 0 146.6 0 146.791 0V0.358248C145.669 0.406015 144.618 0.632906 143.639 1.03892C142.66 1.42105 141.848 1.87483 141.203 2.40027C140.582 2.90181 139.973 3.58249 139.376 4.44228C138.779 5.2782 138.313 5.99469 137.978 6.59177C137.668 7.18885 137.298 7.95312 136.868 8.88457L126.909 30.6661C126.025 32.6006 125.583 33.8306 125.583 34.356H125.261L115.194 11.3923C114.859 10.628 114.394 10.0668 113.797 9.70854C113.223 9.3264 112.638 9.13534 112.041 9.13534H111.755V8.77709H119.815V9.13534H119.493C118.776 9.13534 118.299 9.4697 118.06 10.1384C118.012 10.2817 117.988 10.4489 117.988 10.64C117.988 10.831 118.048 11.0699 118.167 11.3565L125.655 30.1287L134.539 8.88457C135.948 5.5648 137.716 3.18841 139.841 1.75542Z" fill="#004881"/>
<path d="M103.267 33.4961H103.554V33.8543H95.4935V33.4961H95.8159C96.3174 33.4961 96.6876 33.3408 96.9265 33.0304C97.1892 32.696 97.3205 32.3855 97.3205 32.0989C97.3205 31.8123 97.2728 31.5257 97.1772 31.2391L94.8844 25.1489H85.2117L82.8115 31.2749C82.7159 31.5615 82.6682 31.8481 82.6682 32.1347C82.6682 32.3975 82.7876 32.696 83.0264 33.0304C83.2891 33.3408 83.6713 33.4961 84.1728 33.4961H84.4952V33.8543H77.2944V33.4961H77.6169C78.2139 33.4961 78.7991 33.305 79.3723 32.9229C79.9455 32.5408 80.4112 31.9795 80.7694 31.2391L88.8659 11.9654C89.7495 10.0308 90.1914 8.80082 90.1914 8.27539H90.5138L100.115 31.2391C100.449 31.9795 100.903 32.5408 101.476 32.9229C102.049 33.305 102.646 33.4961 103.267 33.4961ZM85.6416 24.0742H94.4545L90.1556 12.5744L85.6416 24.0742Z" fill="#004881"/>
<path d="M62.7642 32.3855C62.6926 32.0512 62.6567 31.4063 62.6567 30.451C62.6567 29.4956 62.8359 28.4806 63.1941 27.4059H63.5165C63.4927 27.6686 63.4807 27.9313 63.4807 28.194C63.4807 29.6509 63.9226 30.8689 64.8062 31.8481C65.6899 32.8035 66.8602 33.2811 68.3171 33.2811C69.8217 33.2811 71.0517 32.8274 72.007 31.9198C72.9862 31.0122 73.4758 29.8778 73.4758 28.5164C73.4758 27.1312 73.0101 26.0087 72.0787 25.1489L65.2003 18.7721C63.9106 17.5779 63.2658 16.133 63.2658 14.4373C63.2658 12.7416 63.827 11.2966 64.9495 10.1025C66.0959 8.88441 67.6364 8.27539 69.5709 8.27539C70.4785 8.27539 71.5055 8.39481 72.6519 8.63364H74.049V13.0401H73.7266C73.7266 11.9176 73.3325 11.022 72.5444 10.3532C71.7801 9.6845 70.789 9.35014 69.5709 9.35014C68.3529 9.35014 67.3259 9.75615 66.49 10.5682C65.678 11.3802 65.272 12.3952 65.272 13.6133C65.272 14.8313 65.7496 15.8822 66.7049 16.7659L73.7624 23.286C74.9566 24.3846 75.5537 25.8893 75.5537 27.7999C75.5537 29.7106 74.9447 31.2869 73.7266 32.5288C72.5086 33.7469 70.8845 34.3559 68.8544 34.3559C67.8036 34.3559 66.6811 34.1887 65.4869 33.8543C64.3166 33.5439 63.4091 33.0543 62.7642 32.3855Z" fill="#004881"/>
<path d="M54.564 6.48387L54.3132 6.2331C56.1284 4.27467 57.633 2.71032 58.8272 1.54004C59.472 2.18489 59.9616 2.81779 60.296 3.43876C58.7675 4.32244 56.8568 5.33747 54.564 6.48387ZM51.089 33.4958C51.71 33.4958 52.2354 33.2809 52.6653 32.851C53.1191 32.3972 53.3579 31.8598 53.3818 31.2388V11.3561C53.3579 10.7351 53.1191 10.2097 52.6653 9.77976C52.2354 9.34986 51.71 9.13491 51.089 9.13491H50.6233V8.77666H58.4689V9.13491H58.0032C57.3822 9.13491 56.8449 9.34986 56.3911 9.77976C55.9612 10.2097 55.7343 10.7351 55.7104 11.3561V31.2388C55.7104 31.8598 55.9373 32.3972 56.3911 32.851C56.8449 33.2809 57.3822 33.4958 58.0032 33.4958H58.4689V33.8541H50.6233V33.4958H51.089Z" fill="#004881"/>
<path d="M30.7628 33.4968C31.3838 33.4968 31.9092 33.2819 32.3391 32.852C32.7929 32.3982 33.0317 31.8608 33.0556 31.2398V11.1779C33.0556 10.6047 32.8287 10.1271 32.375 9.74493C31.9212 9.33892 31.3838 9.13591 30.7628 9.13591H30.3329L30.2971 8.77766H40.7938C41.5342 8.77766 42.3343 8.70601 43.1941 8.56271C44.0777 8.41941 44.6987 8.27611 45.057 8.13281V12.6467H44.6987V12.0019C44.6987 11.4287 44.4957 10.9391 44.0897 10.5331C43.7076 10.1271 43.2418 9.91212 42.6925 9.88823H35.3842V20.9581H41.4386C41.9163 20.9342 42.3223 20.7551 42.6567 20.4207C42.9911 20.0864 43.1582 19.6684 43.1582 19.1669V18.6653H43.5165V24.3257H43.1582V23.7883C43.1582 23.3106 42.9911 22.9046 42.6567 22.5702C42.3462 22.2359 41.9521 22.0567 41.4745 22.0329H35.3842V32.7445H40.5072C42.2746 32.7445 43.624 32.3504 44.5554 31.5623C45.4869 30.7741 46.2631 29.6038 46.884 28.0514H47.2423L45.1644 33.8551H30.2971V33.4968H30.7628Z" fill="#004881"/>
<path d="M32.5648 40.0879C29.5316 40.0879 27.0478 39.1206 25.1132 37.186C23.6802 35.7531 22.7368 33.9499 22.2831 31.7765C20.0142 33.4961 17.2318 34.3559 13.9359 34.3559C11.3326 34.3559 8.95621 33.7946 6.80672 32.6721C4.68111 31.5257 3.00929 29.9614 1.79124 27.9791C0.597081 25.9968 0 23.7637 0 21.2798C0 18.796 0.597081 16.5629 1.79124 14.5806C3.00929 12.5744 4.68111 11.022 6.80672 9.92333C8.93233 8.82471 11.3087 8.27539 13.9359 8.27539C17.2318 8.27539 20.1336 9.08742 22.6413 10.7115L23.3578 15.7628H23.0354C22.3189 12.9923 20.6948 11.1056 18.1632 10.1025C16.9213 9.60091 15.5122 9.35014 13.9359 9.35014C10.7116 9.35014 8.02477 10.4727 5.87528 12.7177C3.74967 14.9627 2.68686 17.8167 2.68686 21.2798C2.68686 24.719 3.76161 27.573 5.9111 29.842C8.06059 32.1109 10.7355 33.2573 13.9359 33.2811C15.4883 33.2811 16.969 33.0065 18.3782 32.4572C19.7873 31.9079 20.9934 31.1436 21.9965 30.1644V23.8234C21.9965 23.2979 21.8412 22.9039 21.5307 22.6412C21.2203 22.3546 20.7784 22.2113 20.2052 22.2113H19.632V21.853H26.6537V22.2113H26.1163C25.5192 22.2113 25.0655 22.3546 24.755 22.6412C24.4445 22.9039 24.3012 23.2979 24.3251 23.8234V29.3404C24.4684 33.114 25.6984 35.8128 28.015 37.4368C29.6391 38.5832 31.7408 39.1564 34.3202 39.1564C35.395 39.1564 36.5652 39.0489 37.831 38.834L37.8669 39.1922C35.9562 39.7893 34.1889 40.0879 32.5648 40.0879Z" fill="#004881"/>
</svg>
